<?xml version="1.0" encoding="UTF-8" standalone="no"?>
<!-- Created with Inkscape (http://www.inkscape.org/) -->
<svg id="svg2" xmlns:rdf="http://www.w3.org/1999/02/22-rdf-syntax-ns#" xmlns="http://www.w3.org/2000/svg" height="512" width="512" version="1.1" enable-background="new" xmlns:cc="http://creativecommons.org/ns#" xmlns:xlink="http://www.w3.org/1999/xlink" xmlns:dc="http://purl.org/dc/elements/1.1/">
 <defs id="defs4">
  <linearGradient id="linearGradient42464" y2="434.03" gradientUnits="userSpaceOnUse" x2="434.03" y1="308" x1="308">
   <stop id="stop42460" offset="0"/>
   <stop id="stop42462" stop-opacity="0" offset="1"/>
  </linearGradient>
  <clipPath id="clipPath42478" clipPathUnits="userSpaceOnUse">
   <path id="path42480" d="m-31.82 94.1a159.1 159.1 0 1 1 -318.2 0 159.1 159.1 0 1 1 318.2 0z" fill-rule="evenodd" transform="matrix(1.5085 0 0 1.5085 550 104.05)" fill="#26c6da"/>
  </clipPath>
  <clipPath id="clipPath42482" clipPathUnits="userSpaceOnUse">
   <path id="path42484" d="m-31.82 94.1a159.1 159.1 0 1 1 -318.2 0 159.1 159.1 0 1 1 318.2 0z" fill-rule="evenodd" transform="matrix(1.5085 0 0 1.5085 544 114.05)" fill="#26c6da"/>
  </clipPath>
  <filter id="filter43000" style="color-interpolation-filters:sRGB">
   <feFlood id="feFlood43002" result="flood" flood-opacity=".4" flood-color="rgb(0,0,0)"/>
   <feComposite id="feComposite43004" operator="in" result="composite1" in2="SourceGraphic" in="flood"/>
   <feGaussianBlur id="feGaussianBlur43006" stdDeviation="3" result="blur" in="composite"/>
   <feOffset id="feOffset43008" result="offset" dx="0" dy="3"/>
   <feComposite id="feComposite43010" operator="over" result="composite2" in2="offset" in="SourceGraphic"/>
  </filter>
 </defs>
 <metadata id="metadata7">
  <rdf:RDF>
   <cc:Work rdf:about="">
    <dc:format>image/svg+xml</dc:format>
    <dc:type rdf:resource="http://purl.org/dc/dcmitype/StillImage"/>
    <dc:title/>
   </cc:Work>
  </rdf:RDF>
 </metadata>
 <g id="layer2">
  <path id="path2999" d="m-31.82 94.1a159.1 159.1 0 1 1 -318.2 0 159.1 159.1 0 1 1 318.2 0z" fill-rule="evenodd" transform="matrix(1.5085 0 0 1.5085 544 114.05)" filter="url(#filter43000)" fill="#26c6da"/>
 </g>
 <g id="layer1" transform="translate(-34.701 -526.06)">
  <path id="path41630" opacity=".1" d="m382.97 100.44c-0.5169 0.001-1.0159 0.0433-1.5312 0.0937-1.5365 0.1505-3.0783 0.5374-4.5312 1.125-0.009 0.004-0.0222-0.004-0.0312 0-1.4536 0.59092-2.8289 1.4093-4.0938 2.4375-0.007 0.005-0.0247-0.005-0.0312 0-0.42336 0.34525-0.82449 0.69946-1.2188 1.0938l-106 106 0.0312 0.0312 0.0312 0.0312 0.0625 0.0625 0.0625 0.0625 0.0937 0.0625-0.0312 0.0312 0.125 0.0937 0.0937 0.0937 0.125 0.125 0.15625 0.15625 0.15625 0.15625 0.15625 0.15625 0.1875 0.1875 0.21875 0.21875 0.1875 0.1875 0.25 0.25 0.25 0.25 0.25 0.25 0.28125 0.28125 0.28125 0.28125 0.3125 0.3125 0.3125 0.3125 0.34375 0.34375 0.34375 0.34375 0.15625 0.15625 0.1875 0.21875 0.40625 0.375 0.375 0.375 0.40625 0.40625 0.4375 0.4375 0.4375 0.4375 0.4375 0.4375 0.46875 0.46875 0.5 0.5 0.5 0.5 0.5 0.5 0.53125 0.53125 0.53125 0.53125 0.5625 0.5625 0.5625 0.5625 0.59375 0.59375 0.59375 0.59375 0.625 0.625 0.625 0.625 0.65625 0.65625 0.65625 0.65625 0.6875 0.6875 0.6875 0.6875 0.6875 0.6875 0.0312 0.0312 0.0312 0.0312 0.4375 0.4375 0.125 0.125 0.0937 0.125 0.75 0.71875 0.75 0.75 0.46875 0.46875 0.125 0.15625 0.15625 0.15625 0.34375 0.3125 0.4375 0.4375 0.8125 0.8125 0.8125 0.8125 0.8125 0.8125 0.84375 0.84375 0.84375 0.84375 0.875 0.875 0.875 0.875 0.90625 0.90625 0.90625 0.90625 0.9375 0.9375 0.9375 0.9375 0.96875 0.96875 0.96875 0.96875 1 1 1 1 1 1 1.0312 1.0312 1.0625 1.0625 1.7188 1.6875 0.0312 0.0312 0.0312 0.0312 0.0625 0.0625 0.0625 0.0625 0.1875 0.1875 0.0312 0.0625 0.0625 0.0312 0.125 0.125 0.15625 0.15625 0.15625 0.15625 0.15625 0.15625 0.1875 0.1875 0.21875 0.21875 0.0312 0.0625 0.15625 0.125 0.25 0.25 0.25 0.25 0.25 0.25 0.21875 0.25 0.0625 0.0312 0.28125 0.28125 0.3125 0.3125 0.3125 0.3125 0.125 0.15625 0.21875 0.1875 0.34375 0.34375 0.34375 0.375 0.25 0.25 0.15625 0.125 0.375 0.375 0.40625 0.40625 0.21875 0.25 0.21875 0.1875 0.4375 0.4375 0.4375 0.4375 0.0625 0.0937 0.40625 0.375 0.5 0.5 0.28125 0.3125 0.21875 0.1875 0.5 0.5 0.46875 0.5 0.0625 0.0312 0.53125 0.53125 0.5625 0.5625 0.0625 0.0937 0.5 0.46875 0.59375 0.59375 0.125 0.15625 0.46875 0.4375 0.625 0.625 0.15625 0.1875 0.46875 0.4375 0.65625 0.65625 0.125 0.15625 0.53125 0.5 0.6875 0.6875 0.0312 0.0625 0.5625 0.5625 0.0937 0.0625 0.15625 0.1875v0.0312l0.46875 0.46875 0.78125 0.75 0.53125 0.53125 0.21875 0.1875 0.75 0.75 0.34375 0.375 1.1875 1.1562 0.15625 0.1875 0.65625 0.625 0.6875 0.71875 0.125 0.0937 0.8125 0.8125 0.40625 0.4375 0.4375 0.40625 0.84375 0.84375 0.0937 0.125 0.78125 0.75 0.625 0.65625 0.21875 0.21875 1.1562 1.1875 1.4375 1.4062 0.1875 0.15625 0.9375 0.9375 0.3125 0.34375 0.65625 0.625 0.78125 0.8125 0.1875 0.15625 1 1 0.28125 0.3125 0.71875 0.6875 0.75 0.78125 0.25 0.21875 1.0312 1.0312 0.21875 0.25 0.84375 0.8125 0.65625 0.6875 0.40625 0.375 1.0625 1.0625 0.0625 0.0937 1.0312 1 1.125 1.125 0.9375 0.96875 0.15625 0.125 1.1562 1.1562 0.25 0.28125 0.90625 0.875 0.65625 0.6875 0.5 0.46875 1.125 1.1562 0.0625 0.0312 1.1875 1.1875 0.34375 0.375 0.875 0.84375 0.75 0.78125 0.46875 0.4375 1.1875 1.2188 0.0625 0.0312 1.25 1.25 0.34375 0.375 0.90625 0.875 0.75 0.78125 1.6875 1.6875 0.15625 0.125 1.3125 1.3125 0.21875 0.25 1.125 1.0938 0.59375 0.625 0.75 0.71875 1 1.0312 0.34375 0.3125 1.375 1.375 0.0312 0.0625 1.375 1.3438 0.375 0.40625 1 1 0.78125 0.78125 0.65625 0.625 1.125 1.1562 0.3125 0.28125 1.4375 1.4375 0.0625 0.0937 1.4062 1.375 0.40625 0.4375 1.0625 1.0312 0.78125 0.8125 0.71875 0.6875 1.125 1.1562 0.375 0.34375 1.4688 1.5 0.0625 0.0312 1.3125 1.3438h0.0312l0.5 0.5-0.0312 0.0312 1.9062 1.875 0.9375 0.90625 0.96875 1 0.59375 0.5625 1.3438 1.375 0.28125 0.25 1.5938 1.5938 0.0625 0.0937 1.5625 1.5312 0.375 0.40625 1.2812 1.25 0.6875 0.71875 0.96875 0.9375 1.0312 1.0625 0.625 0.59375 1.375 1.4062 0.3125 0.28125 1.6875 1.6875v0.0312l1.7188 1.6875 0.3125 0.34375 1.4375 1.4062 0.59375 0.625 1.1562 1.125 0.90625 0.9375 0.84375 0.8125 1.2188 1.25 0.5625 0.53125 1.5312 1.5625 0.25 0.21875 1.8125 1.8125 0.0312 0.0625 1.7812 1.75 0.34375 0.375 1.5 1.4688 1.8438 1.8438 0.9375 0.96875 0.90625 0.875 1.25 1.2812 2.1875 2.1875 0.34375 0.3125 1.8438 1.875 0.0625 0.0312 1.9375 1.9375 0.1875 0.21875 1.75 1.7188 0.46875 0.5 1.4688 1.4375 0.78125 0.8125 1.1875 1.1562 1.0625 1.0938 0.9375 0.90625 1.3125 1.3438 0.6875 0.65625 1.5938 1.625 0.40625 0.375 1.9062 1.9375 0.125 0.0937 2.0312 2.0312 0.15625 0.1875 1.9062 1.875 0.40625 0.4375 1.6562 1.625 0.6875 0.71875 1.4062 1.375 0.9375 0.96875 1.1562 1.125 1.2188 1.25 2.375 2.375 0.65625 0.625 1.75 1.7812 0.40625 0.375 2 2.0312 0.15625 0.125 2.1875 2.1875 0.0937 0.125 2.0938 2.0625 0.34375 0.375 1.8438 1.8125 0.625 0.65625 1.5938 1.5625 0.875 0.90625 1.2188 1.2188h0.0312l1.25 1.25-0.0312 0.0312 2.5312 2.5 0.875 0.84375 1.625 1.6562 0.65625 0.625 1.875 1.9062 0.4375 0.40625 2.125 2.1562 0.1875 0.15625 2.3125 2.3125 0.0625 0.0937 2.2812 2.25 0.28125 0.3125 2.0625 2.0312 0.53125 0.5625 1.8438 1.8125 0.75 0.78125 1.625 1.5938 1 1.0312 1.4062 1.375 1.25 1.2812 1.0312 1.0312 0.125 0.0937 0.78125 0.8125 0.6875 0.71875 2.6875 2.6562 0.71875 0.6875 1.9688 2 0.5 0.46875 2.1875 2.2188 0.28125 0.25 2.4375 2.4688 2.5625 2.5312 0.15625 0.1875 2.3438 2.3125 0.375 0.40625 2.1562 2.125 0.625 0.65625 1.9375 1.9062 0.8125 0.84375 1.75 1.7188 1.0312 1.0625 1.5312 1.5 1.2812 1.3125 1.3125 1.2812 1.5 1.5312 0.625 0.625 0.46875 0.4375 0.5625 0.59375 1.1562 1.1875 2.8438 2.8438 2.875 2.8438 2.875 2.875 0.28125 0.25 2.5938 2.625 0.0937 0.0625 2.6875 2.6875 0.125 0.15625 2.5938 2.5625 0.34375 0.375 2.375 2.3438 0.5625 0.59375 2.1562 2.125 0.78125 0.8125 2 1.9688 0.96875 1 1.7812 1.75 2.7812 2.7812 2.8125 2.8125 2.8125 2.8125 8.5312 8.5312 2.875 2.875 2.875 2.875 2.9062 2.9062 2.9375 2.9375 2.9375 2.9375 2.9375 2.9375 2.9688 2.9688 105.96-106.09c6.3887-6.3898 6.4227-16.565 0.0625-22.844l-2.9688-2.9688-2.9375-2.9375-2.9375-2.9375-2.9375-2.9375-2.9062-2.9062-1.6562-1.6875c-0.0209-0.0209-0.0415-0.0417-0.0625-0.0625l-1.1562-1.125-1.75-1.7812c-0.0212-0.0211-0.0413-0.0415-0.0625-0.0625l-1.07-1.05-1.81-1.84c-0.0206-0.0206-0.0418-0.042-0.0625-0.0625l-2.875-2.875c-0.0209-0.0209-0.0415-0.0417-0.0625-0.0625l-2.875-2.875c-0.0212-0.0211-0.0413-0.0415-0.0625-0.0625l-0.78125-0.75-2.0625-2.0938c-0.0212-0.0211-0.0413-0.0415-0.0625-0.0625l-0.6875-0.65625-2.125-2.1562c-0.0212-0.0211-0.0413-0.0415-0.0625-0.0625l-0.625-0.59375-2.1875-2.2188c-0.0314-0.0314-0.0622-0.0627-0.0937-0.0937h-0.0312c-0.0745-0.0731-0.14315-0.14742-0.21875-0.21875l-0.25-0.25-2.2812-2.2812c-0.0209-0.0209-0.0415-0.0417-0.0625-0.0625l-0.40625-0.40625-2.375-2.375-0.40625-0.40625-0.84375-0.84375-0.40625-0.40625-0.15625-0.15625-0.0312-0.0312-0.375-0.40625-0.59375-0.59375h-0.0312c-0.01-0.01-0.0215-0.0216-0.0312-0.0312l-0.25-0.25-1-1-0.40625-0.40625-0.125-0.15625-0.40625-0.40625-0.5625-0.5625h-0.0312c-0.01-0.01-0.0215-0.0216-0.0312-0.0312l-0.15625-0.15625-1.0938-1.0938-0.40625-0.40625-0.15625-0.15625-0.0312-0.0312-0.34375-0.375-0.5625-0.5625h-0.0312c-0.01-0.01-0.0215-0.0216-0.0312-0.0312l-0.0625-0.0625-0.375-0.375-0.15625-0.15625-0.0312-0.0312-0.59375-0.625-0.9375-0.9375-0.5625-0.5625h-0.0312c-0.01-0.01-0.0215-0.0216-0.0312-0.0312l-0.4375-0.4375-0.15625-0.15625-0.0312-0.0312-0.59375-0.625-0.90625-0.90625-0.53125-0.5-0.0312-0.0625c-0.0206-0.0206-0.0418-0.042-0.0625-0.0625l-2.75-2.76h-0.0312c-0.01-0.01-0.0215-0.0216-0.0312-0.0312l-0.1-0.1-0.34-0.37-0.78-0.78-0.91-0.91-0.31-0.28-0.21875-0.25c-0.0209-0.0209-0.0415-0.0417-0.0625-0.0625l-2.375-2.3438-0.3125-0.3125c-0.009-0.009-0.0218-0.0219-0.0312-0.0312l-1.25-1.25-0.25-0.25-0.0625-0.0625-0.5625-0.59375-0.15625-0.125-0.40625-0.40625c-0.01-0.01-0.0215-0.0216-0.0312-0.0312l-2.125-2.125-0.0312-0.0312-0.21875-0.21875-0.0937-0.0937-0.0312-0.0312-0.15625-0.15625c-0.009-0.009-0.0218-0.0219-0.0312-0.0312l-0.625-0.625-0.25-0.25-0.0625-0.0625-0.65-0.68-0.46875-0.4375-0.5625-0.59375-0.0312-0.0312h-0.0312c-0.0952-0.0944-0.18423-0.18971-0.28125-0.28125l-1.6562-1.6562-0.6875-0.6875-0.0937-0.0937-0.0312-0.0312-0.34375-0.375-0.78125-0.78125-0.625-0.59375-0.25-0.28125-0.5-0.5c-0.0209-0.0209-0.0415-0.0417-0.0625-0.0625l-1.75-1.7188-0.875-0.875c-0.01-0.01-0.0215-0.0216-0.0312-0.0312l-1.625-1.625-0.46875-0.46875-0.0625-0.0625-0.0312-0.0312-0.0625-0.0937-0.15625-0.15625-0.15625-0.15625h-0.0312c-0.01-0.01-0.0215-0.0216-0.0312-0.0312l-0.125-0.125-0.0312-0.0312-0.34375-0.375-0.75-0.75-0.25-0.21875-0.58-0.61-0.46875-0.46875h-0.0312c-0.01-0.01-0.0215-0.0216-0.0312-0.0312l-0.125-0.125-0.0312-0.0312-0.34375-0.375-0.75-0.75-0.8125-0.8125-0.46875-0.46875h-0.0312c-0.01-0.01-0.0215-0.0216-0.0312-0.0312l-1.25-1.25-0.0625-0.0625-0.4375-0.46875-0.28125-0.28125-0.46875-0.46875h-0.0312c-0.009-0.009-0.0218-0.0219-0.0312-0.0312l-1.2188-1.2188-0.0312-0.0312-0.0625-0.0625-0.3125-0.34375-0.40625-0.40625-0.46875-0.46875c-0.0209-0.0209-0.0415-0.0417-0.0625-0.0625l-1.1254-1.094-1.38-1.42-0.0312-0.0312-1.0312-1-1.4688-1.5-0.0312-0.0312-0.94-0.91-1.5312-1.5625c-0.0609-0.0609-0.1259-0.12783-0.1875-0.1875h-0.0312c-0.0417-0.0403-0.083-0.0853-0.125-0.125l-0.53125-0.53125-1.6562-1.6562-0.75-0.75-0.53125-0.53125-0.375-0.375-0.0312-0.0312-0.0937-0.125-0.25-0.25-0.4375-0.4375-0.0312-0.0312-0.625-0.59375-1.8-1.84c-0.0209-0.0209-0.0415-0.0417-0.0625-0.0625l-0.5-0.46875-1.9062-1.9375-0.0312-0.0312-0.40625-0.375-2-2.0312-0.0312-0.0312-0.3125-0.28125-2.0938-2.125-0.0312-0.0312-0.18-0.15-2.19-2.22-0.0312-0.0312-0.0937-0.0625-2.2812-2.3125c-0.005-0.005-0.026 0.005-0.0312 0v-0.0312l-2.2812-2.25-0.0625-0.0937-0.0312-0.0312-2.1562-2.125-0.1875-0.21875-0.0312-0.0312-2.0312-2-0.3-0.33-0.0312-0.0312-1.9375-1.9062-0.375-0.40625-0.0312-0.0312-1.8125-1.7812-0.46875-0.5c-0.0209-0.0209-0.0415-0.0417-0.0625-0.0625l-1.6562-1.625-0.59375-0.625c-0.0209-0.0209-0.0415-0.0417-0.0625-0.0625l-1.5312-1.5-0.71875-0.75-0.0312-0.0312-1.45-1.42-0.81-0.84-0.0312-0.0312-1.3125-1.2812-0.90625-0.9375-0.0312-0.0312-1.2188-1.1875-1-1.0312-0.0312-0.0312-1.0938-1.0625-1.125-1.1562-0.0312-0.0312-0.96875-0.9375-1.2188-1.25-0.0312-0.0312-0.84375-0.8125-1.3125-1.3438c-0.0209-0.0209-0.0415-0.0417-0.0625-0.0625l-0.71875-0.6875-1.4062-1.4375c-0.0209-0.0209-0.0415-0.0417-0.0625-0.0625l-0.59375-0.5625-1.5312-1.5625-0.0312-0.0312-0.5-0.46875-1.63-1.67-0.0312-0.0312-0.375-0.34375-1.75-1.7812-0.0312-0.0312-0.25-0.21875-1.8438-1.875-0.0312-0.0312-0.125-0.0937-1.9688-2c-0.005-0.005-0.026 0.005-0.0312 0v-0.0312l-2-1.9688-0.07-0.11-0.0312-0.0312-1.875-1.8438-0.1875-0.21875-0.0312-0.0312-1.7188-1.6875-0.3125-0.34375-0.0312-0.0312-1.6-1.57-0.4375-0.46875-0.0312-0.0312-1.47-1.44-0.53-0.56-0.0312-0.0312-1.3438-1.3125-0.65625-0.6875-0.0312-0.0312-1.9688-1.9688c-0.0103-0.0103-0.0209-0.021-0.0312-0.0312l-1.0938-1.0625-0.90625-0.90625c-0.01-0.01-0.0217-0.0218-0.0312-0.0312l-0.90625-0.90625-0.78125-0.78125-0.125-0.125v-0.0312l-0.0312-0.0312-0.0312-0.0312-0.0625-0.0625-0.0312-0.0312-0.78125-0.75-1.16-1.19-0.0312-0.0312-0.65625-0.625-1.2812-1.2812c-0.01-0.01-0.0217-0.0218-0.0312-0.0312l-0.5-0.5-0.6875-0.6875-0.0937-0.0937-0.0312-0.0312v-0.0312l-0.0937-0.0937-0.21875-0.21875-0.25-0.25h-0.0312c-0.01-0.01-0.0217-0.0218-0.0312-0.0312l-0.375-0.375-0.0625-0.0625-0.1875-0.1875-0.0937-0.0937-0.0312-0.0312-0.21875-0.25-0.65625-0.65625-0.25-0.25-0.0312-0.0312-0.25-0.21875-1.625-1.6562c-0.0476-0.0476-0.10821-0.0781-0.15625-0.125v-0.0312c-0.01-0.01-0.0212-0.0215-0.0312-0.0312h-0.0312c-0.0425-0.041-0.0821-0.0846-0.125-0.125l-1.5625-1.5625-0.3125-0.3125-0.0312-0.0312v-0.0312l-0.0937-0.0937-0.25-0.25-0.5-0.5-0.45-0.45-0.12-0.09-0.13-0.16-0.0312-0.0312-1.5938-1.5625-0.21875-0.25-0.0312-0.0312-1.4688-1.4375-0.34375-0.375c-0.0103-0.0103-0.0209-0.021-0.0312-0.0312l-1.32-1.29-0.5-0.53125c-0.0106-0.0106-0.0206-0.0207-0.0312-0.0312l-1.1562-1.125-0.625-0.65625-0.0312-0.0312-1-0.96875-0.78125-0.8125c-0.0106-0.0106-0.0206-0.0207-0.0312-0.0312l-0.85-0.82-0.91-0.94-0.0312-0.0312-0.71875-0.6875-1.0312-1.0625c-0.0106-0.0106-0.0206-0.0207-0.0312-0.0312l-0.5625-0.53125-1.1562-1.1875c-0.0103-0.0103-0.0209-0.021-0.0312-0.0312l-0.40625-0.375-1.3125-1.3438-0.0312-0.0312-0.28125-0.25-1.4375-1.4688c-0.0106-0.0106-0.0206-0.0207-0.0312-0.0312l-0.0937-0.0625-1.5625-1.5625-0.0312-0.0625c-0.0106-0.0106-0.0206-0.0207-0.0312-0.0312l-1.5-1.4688-0.15625-0.1875c-0.0106-0.0106-0.0206-0.0207-0.0312-0.0312l-1.3438-1.3125-0.3125-0.34375c-0.0106-0.0106-0.0206-0.0207-0.0312-0.0312l-1.1875-1.1562-0.4375-0.46875-0.0312-0.0312-1.0312-1-0.59375-0.625-0.0312-0.0312-0.875-0.84375-0.75-0.78125c-0.0106-0.0106-0.0206-0.0207-0.0312-0.0312l-0.6875-0.65625-0.90625-0.9375c-0.0106-0.0106-0.0206-0.0207-0.0312-0.0312l-0.53125-0.5-1.02-1.06c-0.0103-0.0103-0.0209-0.021-0.0312-0.0312l-0.375-0.34375-1.2188-1.25c-0.0106-0.0106-0.0206-0.0207-0.0312-0.0312l-0.1875-0.15625-1.3438-1.375c-0.0106-0.0106-0.0206-0.0207-0.0312-0.0312l-1.45-1.42-0.09-0.12-0.0312-0.0312-1.2812-1.25-0.25-0.28125c-0.0106-0.0106-0.0206-0.0207-0.0312-0.0312l-1.0938-1.0625-0.40625-0.4375c-0.0106-0.0106-0.0206-0.0207-0.0312-0.0312l-0.91-0.88-0.6-0.62c-0.0106-0.0106-0.0206-0.0207-0.0312-0.0312l-0.71875-0.6875-0.75-0.78125c-0.0106-0.0106-0.0206-0.0207-0.0312-0.0312l-0.5625-0.53125-0.90625-0.9375c-0.0106-0.0106-0.0206-0.0207-0.0312-0.0312l-0.375-0.34375-1.0625-1.0938c-0.0106-0.0106-0.0206-0.0207-0.0312-0.0312l-1.4375-1.4375c-0.0106-0.0106-0.0206-0.0207-0.0312-0.0312h-0.0312l-1.25-1.25-0.12-0.16-0.0312-0.0312-1.0938-1.0625-0.3125-0.34375c-0.0634-0.0634-0.12333-0.12541-0.1875-0.1875h-0.0312c-0.0312-0.0301-0.0623-0.0639-0.0937-0.0937l-0.625-0.625-0.5-0.5-0.71875-0.71875-0.1875-0.1875-0.0625-0.0625v-0.0312l-0.0312-0.0312-0.25-0.25-0.12-0.12c-0.0103-0.0103-0.0209-0.021-0.0312-0.0312l-0.53125-0.5-0.84375-0.875c-0.0106-0.0106-0.0206-0.0207-0.0312-0.0312l-0.3125-0.28125-1.0312-1.0625c-0.0106-0.0106-0.0206-0.0207-0.0312-0.0312l-0.125-0.0937-1.1562-1.1562-0.0312-0.0625-0.0312-0.0312-1.0938-1.0625-0.21875-0.25-0.0312-0.0312-0.90625-0.875-0.40625-0.4375c-0.0106-0.0106-0.0206-0.0207-0.0312-0.0312l-0.65625-0.625-0.65625-0.65625c-0.0944-0.0941-0.18507-0.19-0.28125-0.28125l-0.1875-0.1875-0.8125-0.8125-0.125-0.125-0.0625-0.0625-0.0312-0.0312v-0.0312l-0.0312-0.0312h-0.0312l-0.1875-0.21875-0.25-0.25-0.25-0.25-0.21875-0.21875-0.0937-0.0937c-0.0106-0.0106-0.0206-0.0207-0.0312-0.0312h-0.0312l-1.0625-1.0625-0.125-0.15625-0.0312-0.0312-0.90625-0.875-0.3125-0.34375c-0.0103-0.0103-0.0209-0.021-0.0312-0.0312l-0.6875-0.65625-0.53125-0.5625c-0.0106-0.0106-0.0206-0.0207-0.0312-0.0312l-0.4375-0.40625-0.75-0.78125-0.0312-0.0312-0.21875-0.1875-0.96875-1c-0.005-0.005-0.026 0.005-0.0312 0v-0.0312l-0.96875-0.9375-0.1875-0.21875-0.0312-0.0312-0.75-0.71875-0.40625-0.4375c-0.0106-0.0106-0.0206-0.0207-0.0312-0.0312l-0.5-0.46875-0.625-0.65625-0.0312-0.0312-0.28125-0.25-0.84375-0.875c-0.0106-0.0106-0.0206-0.0207-0.0312-0.0312h-0.0312l-0.90625-0.90625-0.2-0.22c-0.0106-0.0106-0.0206-0.0207-0.0312-0.0312l-0.65625-0.625-0.40625-0.4375c-0.0103-0.0103-0.0209-0.021-0.0312-0.0312l-0.4375-0.40625-0.65625-0.6875c-0.0106-0.0106-0.0206-0.0207-0.0312-0.0312l-0.15625-0.125-0.84375-0.84375-0.0625-0.0937c-0.0106-0.0106-0.0206-0.0207-0.0312-0.0312l-0.71875-0.6875-0.3125-0.34375c-0.0106-0.0106-0.0206-0.0207-0.0312-0.0312l-0.46875-0.4375-0.5625-0.59375c-0.0106-0.0106-0.0206-0.0207-0.0312-0.0312l-0.24-0.21-0.81-0.84c-0.0106-0.0106-0.0206-0.0207-0.0312-0.0312l-0.6875-0.65625-0.3125-0.34375c-0.0106-0.0106-0.0206-0.0207-0.0312-0.0312l-0.40625-0.375-0.5625-0.59375-0.0312-0.0312-0.875-0.84375-0.0937-0.125-0.0312-0.0312-0.5625-0.53125-0.40625-0.4375c-0.0106-0.0106-0.0206-0.0207-0.0312-0.0312l-0.25-0.21875-0.6875-0.6875v-0.0312c-0.0106-0.0106-0.0206-0.0207-0.0312-0.0312l-0.625-0.59375-0.34375-0.34375-0.3125-0.3125-0.3125-0.3125-0.0312-0.0312v-0.0312l-0.0312-0.0312-0.0312-0.0312-0.03-0.03-0.0937-0.0937-0.0625-0.0625h-0.0312l-0.625-0.625-0.0312-0.0312v-0.0312l-0.0312-0.0312-0.0312-0.0312-0.0312-0.0312-0.0937-0.0937-0.0625-0.0625h-0.0312l-0.28125-0.28125-0.0312-0.0312-0.0937-0.0937-0.0312-0.0312v-0.0312l-0.15625-0.15625-0.125-0.125-0.0937-0.0937-0.0625-0.0312-0.0312-0.0312-0.46875-0.46875-0.0312-0.0312v-0.0312h-0.0312v-0.0312l-0.0312-0.0312-0.0312-0.0312-0.125-0.125-0.0937-0.0937-0.0625-0.0625h-0.0312l-0.1875-0.1875-0.0312-0.0312-0.0625-0.0625-0.0312-0.0312v-0.0312l-0.125-0.125-0.125-0.125-0.125-0.125h-0.0312l-0.0625-0.0937-0.0625-0.0625h-0.0312l-0.375-0.375-0.4375-0.4375-0.0312-0.0312v-0.0312h-0.0312l-0.5-0.5-0.3125-0.34375-0.1875-0.15625-0.46875-0.46875-0.1875-0.21875-0.25-0.21875-0.4375-0.4375-0.125-0.15625c-0.0104-0.0105-0.0208-0.0208-0.0312-0.0312l-0.28125-0.25-0.40625-0.40625-0.0937-0.125-0.28125-0.25-0.53125-0.5625c-0.0423-0.0423-0.0824-0.0833-0.125-0.125h-0.0312c-0.0205-0.02-0.0419-0.0426-0.0625-0.0625l-0.0937-0.0937-0.25-0.25-0.21875-0.21875-0.125-0.125-0.15625-0.15625-0.0312-0.0312v-0.0312l-0.0312-0.0312-0.0312-0.0312-0.0625-0.0312-0.0625-0.0937-0.125-0.125-0.0937-0.0937h-0.0312v-0.0312l-0.28125-0.25-0.28125-0.28125-0.1875-0.21875c-0.0159-0.0159-0.0466-0.0155-0.0625-0.0312v-0.0312c-0.0633-0.0626-0.12342-0.12617-0.1875-0.1875h-0.0312c-0.0101-0.01-0.0211-0.0216-0.0312-0.0312l-0.25-0.25-0.1875-0.1875-0.0625-0.0625-0.0312-0.0312v-0.0312l-0.0625-0.0625-0.0625-0.0312-0.0312-0.0625-0.0937-0.0937-0.0625-0.0312-0.0312-0.0625-0.0937-0.0937h-0.0312l-0.0625-0.0937-0.0625-0.0625h-0.0312v-0.0312l-0.15625-0.125-0.125-0.125-0.0937-0.0937-0.1875-0.1875-0.0625-0.0625-0.0625-0.0625v-0.0312h-0.0312l-0.0312-0.0312-0.65625-0.65625-0.0312-0.0312v-0.0312l-0.05-0.06-0.0312-0.0312-0.0625-0.0625-0.0625-0.0625-0.0937-0.0937-0.0937-0.0937-0.0937-0.0937-0.0625-0.0625-0.0625-0.0625-0.6875-0.6875-0.65625-0.65625-0.625-0.625-0.625-0.625-0.59-0.59-0.59375-0.59375-0.5625-0.5625-0.5625-0.5625-0.53-0.53-0.53125-0.53125-0.5-0.5-0.5-0.5-0.5-0.5-0.47-0.47-0.4375-0.4375-0.4375-0.4375-0.4375-0.4375-0.40625-0.40625-0.375-0.375c-0.0617-0.0617-0.12506-0.12704-0.1875-0.1875h-0.0312c-0.0623-0.0602-0.12444-0.12855-0.1875-0.1875l-0.34375-0.34375v-0.0312l-0.34375-0.34375c-0.11493-0.11494-0.22621-0.23305-0.34375-0.34375l-0.3125-0.3125c-0.10448-0.10449-0.20586-0.21152-0.3125-0.3125-0.0952-0.0952-0.18428-0.18898-0.28125-0.28125-0.094-0.094-0.18546-0.19005-0.28125-0.28125-0.0846-0.0846-0.164-0.16771-0.25-0.25-0.0836-0.0836-0.16503-0.16865-0.25-0.25-0.0846-0.0846-0.16393-0.16765-0.25-0.25-0.0634-0.0634-0.1233-0.12539-0.1875-0.1875-0.072-0.072-0.14568-0.14838-0.21875-0.21875-0.0634-0.0634-0.12329-0.12538-0.1875-0.1875-0.0528-0.0528-0.10285-0.1043-0.15625-0.15625-0.0522-0.0522-0.10346-0.10488-0.15625-0.15625-0.0522-0.0522-0.10348-0.1049-0.15625-0.15625-0.0423-0.0423-0.0823-0.0833-0.125-0.125-0.0317-0.0317-0.0618-0.0624-0.0937-0.0937-0.0364-0.0364-0.0884-0.0578-0.125-0.0937l-0.0625-0.0937-0.0625-0.0625-0.0625-0.0625-0.0312-0.0312c-0.0105-0.0105-0.0207-0.0208-0.0312-0.0312-0.0373-0.0373-0.0874-0.0569-0.125-0.0937-0.13401-0.12998-0.26885-0.25065-0.40625-0.375-0.0548-0.0499-0.10094-0.10729-0.15625-0.15625-0.13821-0.12302-0.26483-0.25761-0.40625-0.375-0.0108-0.009-0.0204-0.0225-0.0312-0.0312-0.006-0.005-0.0253 0.005-0.0312 0-0.0113-0.009-0.0199-0.0221-0.0312-0.0312-0.0112-0.009-0.02-0.0221-0.0312-0.0312-0.0872-0.071-0.19286-0.11862-0.28125-0.1875-0.31578-0.2461-0.63935-0.49963-0.96875-0.71875-0.012-0.008-0.0193-0.0234-0.0312-0.0312-0.012-0.008-0.0193-0.0234-0.0312-0.0312-0.42701-0.28073-0.86591-0.51432-1.3125-0.75-0.0125-0.007-0.0187-0.0247-0.0312-0.0312-0.008-0.004-0.0228 0.004-0.0312 0-0.13376-0.0698-0.27095-0.12168-0.40625-0.1875-0.79978-0.38905-1.626-0.72009-2.4688-0.96875-1.5091-0.44529-3.0614-0.6911-4.625-0.6875zm-205.03 42.875c-0.5157-0.00002-1.0179 0.0444-1.5312 0.0937-0.51334 0.0493-1.024 0.12019-1.5312 0.21875-0.50725 0.0986-1.0338 0.22727-1.5312 0.375-2.4872 0.73866-4.8189 2.0692-6.7812 4.0312l-27.75 27.75 0.0312 0.0312 0.0312 0.0312 0.0625 0.0625 0.0625 0.0625 0.0625 0.0937 0.125 0.0937 0.0937 0.0937 0.125 0.125 0.15625 0.15625 0.15625 0.15625 0.15625 0.15625 0.1875 0.1875 0.21875 0.21875 0.1875 0.1875 0.25 0.25 0.25 0.25 0.25 0.25 0.28125 0.28125 0.28125 0.28125 0.3125 0.3125 0.3125 0.3125 0.34375 0.34375 0.34375 0.34375 0.34375 0.375 0.40625 0.375 0.375 0.375 0.40625 0.40625 0.4375 0.4375 0.4375 0.4375 0.4375 0.4375 0.46875 0.46875 0.5 0.5 0.5 0.5 0.5 0.5 0.53125 0.53125 0.53125 0.53125 0.5625 0.5625 0.5625 0.5625 0.59375 0.59375 0.59375 0.59375 0.625 0.625 0.625 0.625 0.65625 0.65625 0.65625 0.65625 0.6875 0.6875 0.6875 0.6875 0.6875 0.6875 0.71875 0.75 0.75 0.71875 0.75 0.75 0.75 0.78125 0.78125 0.75 0.8125 0.8125 0.8125 0.8125 0.8125 0.8125 0.84375 0.84375 0.84375 0.84375 0.875 0.875 0.875 0.875 0.90625 0.90625 0.90625 0.90625 0.9375 0.9375 0.9375 0.9375 0.96875 0.96875 0.96875 0.96875 1 1 1 1 1 1 1.0312 1.0312 1.0625 1.0625 1.0625 1.0625 1.0625 1.0625 1.0938 1.0938 1.125 1.125 1.0938 1.0938 1.1562 1.1562 1.1562 1.1562 1.1562 1.1562 1.1875 1.1875 1.1875 1.1875 1.2188 1.2188 1.2188 1.2188 1.25 1.25 1.25 1.25 1.25 1.25 1.29 1.31 1.3125 1.2812 1.3125 1.3125 1.3438 1.3438 1.3438 1.3438 1.3438 1.3438 1.375 1.375 1.4062 1.4062 1.375 1.4062 1.4375 1.4062 1.4375 1.4375 1.4375 1.4375 1.4688 1.4688 1.4688 1.4688 1.5 1.5 1.5 1.5 1.5312 1.5312 1.5312 1.5312 1.5625 1.5625 1.5625 1.5625 1.5625 1.5625 1.625 1.625 1.5938 1.5938 1.625 1.625 1.6562 1.6562 1.6562 1.6562 1.6562 1.6562 1.6875 1.6875 1.6875 1.6875 1.7188 1.7188 1.75 1.75 1.75 1.75 1.75 1.75 1.7812 1.7812 1.7812 1.7812 1.8125 1.8125 1.8125 1.8125 1.8438 1.8438 1.8438 1.8438 1.8438 1.8438 1.875 1.9062 1.9062 1.875 1.9062 1.9062 1.9375 1.9375 1.9375 1.9375 1.9375 1.9375 1.9688 1.9688 2 2 2 2 2 2 2.0312 2.0312 2.0312 2.0312 2.0625 2.0625 2.0625 2.0625 2.0938 2.0938 2.0938 2.0938 2.125 2.125 2.125 2.125 2.1562 2.1562 2.1562 2.1562 2.1875 2.1875 2.1875 2.1875 2.1875 2.1875 2.2188 2.2188 2.25 2.25 2.25 2.25 2.25 2.25 2.2812 2.2812 2.3125 2.3125 2.3125 2.3125 2.3125 2.3125 2.3438 2.3438 2.3438 2.3438 2.375 2.375 2.375 2.375 2.4062 2.4062 2.4062 2.4062 2.4375 2.4375 1.5 1.5 0.0312 0.0312 0.0312 0.0312 0.125 0.125 0.0625 0.0937 0.125 0.0937 0.0937 0.0937 0.125 0.125 0.15625 0.15625 0.15625 0.15625 0.0312 0.0312 0.125 0.125 0.1875 0.1875 0.21875 0.21875 0.1875 0.1875 0.25 0.25 0.25 0.25 0.25 0.25 0.28125 0.28125 0.28125 0.28125 0.3125 0.3125 0.125 0.125 0.1875 0.1875 0.34375 0.34375 0.34375 0.34375 0.34375 0.375 0.40625 0.375 0.375 0.375 0.46875 0.46875 0.375 0.375 0.4375 0.4375 0.4375 0.4375 0.46875 0.46875 0.5 0.5 0.25 0.28125 0.25 0.21875 0.5 0.5 0.53125 0.53125 0.53125 0.53125 0.5625 0.5625 0.15625 0.15625 0.40625 0.40625 1.1875 1.1875 0.625 0.625 0.28125 0.28125 0.34375 0.34375 1.3125 1.3125 0.6875 0.6875 0.1875 0.1875 0.5 0.5 0.6875 0.6875 0.71875 0.75 0.65625 0.625 0.0937 0.0937 0.75 0.75 0.75 0.78125 0.78125 0.75 0.1875 0.1875 0.625 0.625 0.8125 0.8125 0.8125 0.8125 0.3125 0.3125 0.53125 0.53125 0.84375 0.84375 0.875 0.875 0.34375 0.34375 0.53125 0.53125 0.90625 0.90625 0.90625 0.90625 0.25 0.25 0.6875 0.6875 0.9375 0.9375 0.96875 0.96875 0.0312 0.0312 0.9375 0.9375 1 1 0.71875 0.71875 0.28125 0.28125 1 1 1.0312 1.0312 0.3125 0.34375 0.75 0.71875 1.0625 1.0625 0.875 0.875 0.1875 0.1875 1.0938 1.0938 1.125 1.125 0.28125 0.28125 0.8125 0.8125 1.1562 1.1562 0.71875 0.71875 0.4375 0.4375 1.1562 1.1562 1.125 1.125 0.0625 0.0625 1.1875 1.1875 1.2188 1.2188 0.25 0.25 0.96875 0.96875 1.25 1.25 0.5 0.5 0.75 0.75 1.25 1.25 0.78125 0.78125 0.5 0.53125 1.3125 1.2812 0.9375 0.9375 0.375 0.375 1.3438 1.3438 1.0625 1.0625 0.28125 0.28125 1.3438 1.3438 1.1875 1.1875 0.1875 0.1875 1.4062 1.4062 1.2188 1.2188 0.15625 0.1875 1.4375 1.4062 1.2188 1.25 0.21875 0.1875 2.625 2.6562 0.28125 0.25 1.4688 1.4688 1.125 1.125 0.375 0.375 1.5 1.5 1 1 0.53125 0.53125 1.5312 1.5312 0.8125 0.8125 0.75 0.75 1.5625 1.5625 0.59375 0.59375 0.96875 0.96875 1.625 1.625 0.34375 0.34375 1.25 1.25 1.625 1.625 0.0625 0.0625 1.5938 1.5938 1.3438 1.3438 0.3125 0.3125 1.6562 1.6562 1 1 0.6875 0.6875 1.6875 1.6875 1.7188 1.7188 1.75 1.75 1.75 1.75 1.75 1.75 1.7812 1.7812 1.7812 1.7812 1.8125 1.8125 1.8125 1.8125 1.8438 1.8438 1.8438 1.8438 1.8438 1.8438 1.875 1.9062 1.9062 1.875 1.9062 1.9062 1.9375 1.9375 1.9375 1.9375 1.9375 1.9375 1.9688 1.9688 2 2 2 2 2 2 2.0312 2.0312 2.0312 2.0312 2.0625 2.0625 4.1562 4.1562 2.0938 2.0938 2.125 2.125 2.125 2.125 2.1562 2.1562 2.1562 2.1562 2.1875 2.1875 2.1875 2.1875 2.1875 2.1875 2.2188 2.2188 2.25 2.25 2.25 2.25 2.25 2.25 2.2812 2.2812 2.3125 2.3125 2.3125 2.3125 2.3125 2.3125 2.3438 2.3438 2.3438 2.3438 2.375 2.375 2.375 2.375 2.4062 2.4062 2.4062 2.4062 2.4375 2.4375 2.4375 2.4375 2.4688 2.4688 2.4688 2.4688 2.4688 2.5 2.5312 2.5 2.5 2.5 2.5312 2.5312 2.5625 2.5625 2.5625 2.5625 2.5625 2.5625 2.5938 2.5938 5.2188 5.2188 2.6562 2.6562 5.3125 5.3125 2.6875 2.6875 2.6875 2.6875 2.7188 2.7188 2.7188 2.7188 2.7188 2.7188 2.7812 2.7812 2.75 2.75 2.7812 2.7812 2.8125 2.8125 2.8125 2.8125 28.969 28.969 27.75-27.75c6.3594-6.3594 6.3601-16.503 0-22.781l-2.9688-2.9688-2.9375-2.9375-2.9375-2.9375-2.9375-2.9375-2.9062-2.9062-2.875-2.875-2.875-2.875-2.875-2.8438-2.8438-2.8438-2.8125-2.8438-2.8125-2.8125-2.8125-2.8125-2.7812-2.7812-2.75-2.75-2.7812-2.7812-2.7188-2.7188-2.7188-2.7188-2.7188-2.7188-2.6875-2.6875-2.6875-2.6875-2.6875-2.6562-2.625-2.6562-2.6562-2.6562-2.625-2.625-2.5938-2.5938-2.5938-2.5938-2.5625-2.5625-2.5625-2.5625-2.5625-2.5625-2.5312-2.5312-2.5-2.5-2.5312-2.5-2.4688-2.5-2.4688-2.4688-2.4688-2.4688-2.4375-2.4375-2.4375-2.4375-2.4062-2.4062-2.4062-2.4062-2.375-2.375-2.375-2.375-2.3438-2.3438-2.3438-2.3438-2.3125-2.3125-2.3125-2.3125-2.3125-2.3125-2.2812-2.2812-2.25-2.25-2.25-2.25-2.25-2.25-2.2188-2.2188-2.1875-2.1875-2.1875-2.1875-2.1875-2.1875-2.1562-2.1562-2.1562-2.1562-2.125-2.125-2.125-2.125-2.0938-2.0938-2.1-2.11-2.0625-2.0625-2.0625-2.0625-2.0312-2.0312-2.0312-2.0312-2-2-2-2-2-2-1.9688-1.9688-1.9375-1.9375-1.9375-1.9375-1.9375-1.9375-1.9062-1.9062-1.9062-1.875-1.1562-1.1875-0.71875-0.71875-1.8438-1.8438-0.40625-0.40625-1.4375-1.4375-1.5-1.5-0.35-0.35-1.81-1.81-0.78-0.78-1.03-1.03-1.7812-1.7812-0.125-0.125-1.6562-1.6562-1.25-1.25-0.5-0.5-1.75-1.75-0.625-0.625-1.125-1.125-1.7188-1.7188-0.0312-0.0312-1.6562-1.6562-1.2188-1.1875-0.46875-0.5-1.6562-1.6562-0.71875-0.6875-0.9375-0.96875-1.6562-1.6562-0.21875-0.21875-1.4063-1.4063-1.4062-1.4062-0.1875-0.1875-1.625-1.625-1-1-0.5625-0.5625-1.5625-1.5625-0.66-0.66-0.90625-0.90625-1.5312-1.5312-0.3125-0.3125-1.2188-1.2188-1.5-1.5-0.0625-0.0625-1.4375-1.4375-1.2812-1.2812-0.1875-0.1875-1.4688-1.4688-1.0625-1.0625-0.375-0.375-1.4375-1.4375-0.91-0.91-0.53125-0.5-1.375-1.4062-0.78125-0.78125-0.625-0.625-1.375-1.375-0.6875-0.6875-0.65625-0.65625-1.3438-1.3438-0.6875-0.65625-0.65625-0.6875-1.3125-1.3125-0.65625-0.65625-0.65625-0.625-1.2812-1.3125-0.71875-0.71875-0.53125-0.53125-1.25-1.25-0.84375-0.84375-0.40625-0.40625-1.2188-1.2188-0.96875-0.96875-0.25-0.25-1.1875-1.1875-1.1562-1.1562-0.0312-0.0312-1.1562-1.1562-1.1562-1.1562-0.21875-0.21875-0.9375-0.9375-1.625-1.625-0.59375-0.59375-1.0938-1.0938-0.875-0.875-0.1875-0.1875-1.0625-1.0625-1.0625-1.0625-0.21875-0.21875-0.8125-0.8125-1-1-0.6875-0.6875-0.3125-0.3125-1.9688-1.9688-0.25-0.21875-0.71875-0.75-0.9375-0.9375-0.8125-0.8125-0.125-0.125-0.90625-0.90625-0.90625-0.90625-0.53125-0.53125-0.34375-0.34375-0.875-0.875-0.84375-0.84375-0.40625-0.40625-0.4375-0.4375-0.8125-0.8125-0.8125-0.8125-0.375-0.375-0.4375-0.4375-0.78125-0.75-0.75-0.78125-0.46875-0.46875-0.28125-0.28125-0.75-0.71875-0.71875-0.75-0.65625-0.65625-0.0312-0.0312-0.6875-0.6875-0.6875-0.6875-0.65625-0.65625-0.34375-0.34375-0.3125-0.3125-0.625-0.625-0.625-0.625-0.59375-0.59375-0.21875-0.21875-0.375-0.375-0.5625-0.5625-0.5625-0.5625-0.53125-0.53125-0.34375-0.34375-0.1875-0.1875-0.5-0.5-0.5-0.5-0.96875-0.96875-0.1875-0.1875-0.25-0.25-0.4375-0.4375-0.4375-0.4375-0.40625-0.40625-0.375-0.375-0.375-0.375c-0.0203-0.0214-0.042-0.0412-0.0625-0.0625l-0.3125-0.3125-0.34375-0.34375-0.34375-0.34375-0.3125-0.3125c-0.10231-0.10657-0.20667-0.20804-0.3125-0.3125l-0.28125-0.28125-0.28125-0.28125-0.125-0.125-0.125-0.125-0.25-0.25-0.25-0.25-0.1875-0.1875-0.21875-0.21875-0.1875-0.1875-0.15625-0.15625-0.15625-0.15625-0.15625-0.15625-0.125-0.125-0.0937-0.0937-0.0937-0.0937c-0.005-0.005-0.0263 0.005-0.0312 0l-0.0625-0.0625c-0.005-0.005 0.005-0.0258 0-0.0312l-0.0625-0.0625-0.0625-0.0625-0.0312-0.0312-0.0312-0.0312-0.0312-0.0312-2.3125-2.3125-2.2812-2.2812-2.25-2.25-2.25-2.25-2.25-2.25-2.23-2.23-2.19-2.19-2.19-2.19-2.19-2.19-2.15-2.15-2.16-2.16-2.125-2.125-2.125-2.125-2.0938-2.0938-2.0938-2.0938-2.0625-2.0625-2.0625-2.0625-2.0312-2.0312-2.0312-2.0312-2-2-2-2-2-2-1.9688-1.9688-1.9375-1.9375-1.9375-1.9375-1.9375-1.9375-1.9-1.9-1.9062-1.875-1.875-1.9062-1.8438-1.8438-1.8438-1.8438-1.8438-1.8438-1.8125-1.8125-1.8125-1.8125-1.7812-1.7812-1.7812-1.7812-1.75-1.75-1.75-1.75-1.75-1.75-1.7188-1.7188-1.6875-1.6875-1.6875-1.6875-1.6562-1.6562-1.6562-1.6562-1.6562-1.6562-1.625-1.625-1.5938-1.5938-1.625-1.625-1.5625-1.5625-1.5625-1.5625-1.5625-1.5625-1.5312-1.5312-1.5312-1.5312-1.5-1.5-1.5-1.5-1.4688-1.4688-1.4688-1.4688-1.4375-1.4375-1.4375-1.4375-1.4375-1.4062-1.375-1.4062-1.4062-1.4062-1.375-1.375-1.3438-1.3438-1.3438-1.3438-1.3438-1.3438-1.3125-1.3125-0.3125-0.28125-1-1-1.2812-1.3125-1.25-1.25-1.25-1.25-1.25-1.25-1.2188-1.2188-1.2188-1.2188-1.1875-1.1875-1.1875-1.1875-1.1562-1.1562-1.1562-1.1562-1.1562-1.1562-1.0938-1.0938-1.125-1.125-1.0938-1.0938-1.0625-1.0625-1.0625-1.0625-1.0625-1.0625-1.0312-1.0312-1-1-1-1-1-1-0.96875-0.96875-0.96875-0.96875-0.9375-0.9375-0.9375-0.9375-0.90625-0.90625-0.90625-0.90625-0.875-0.875-0.875-0.875-0.84375-0.84375-0.85-0.85-0.81-0.81-0.81-0.81-0.8125-0.8125-0.78125-0.75-0.75-0.78125-0.75-0.75-0.75-0.71875-0.71875-0.75-0.6875-0.6875-0.6875-0.6875-0.6875-0.6875-0.65625-0.65625-0.65625-0.65625-0.625-0.625-0.625-0.625-0.59375-0.59375-0.59375-0.59375-0.5625-0.5625-0.5625-0.5625-0.53125-0.53125-0.53125-0.53125-0.5-0.5-0.5-0.5-0.5-0.5-0.46875-0.46875-0.4375-0.4375-0.4375-0.4375-0.4375-0.4375-0.40625-0.40625-0.375-0.375-0.3125-0.28125c-0.0315-0.0299-0.0621-0.0641-0.0937-0.0937l-0.34375-0.375-0.34375-0.34375c-0.11493-0.11493-0.22618-0.233-0.34375-0.34375l-0.3125-0.3125c-0.10448-0.10448-0.20584-0.21148-0.3125-0.3125-0.0952-0.0952-0.18426-0.18894-0.28125-0.28125-0.094-0.094-0.18545-0.19002-0.28125-0.28125-0.0846-0.0846-0.16399-0.16769-0.25-0.25l-0.25-0.25c-0.0836-0.0836-0.16501-0.16863-0.25-0.25-0.0635-0.0635-0.12321-0.12529-0.1875-0.1875-0.0721-0.0721-0.14564-0.14833-0.21875-0.21875l-0.1875-0.1875c-0.0528-0.0528-0.10285-0.10429-0.15625-0.15625-0.0522-0.0522-0.10346-0.10487-0.15625-0.15625-0.0522-0.0522-0.10347-0.10489-0.15625-0.15625-0.0423-0.0423-0.0823-0.0833-0.125-0.125-0.0317-0.0317-0.0618-0.0624-0.0937-0.0937l-0.125-0.0937-0.0625-0.0937c-0.0211-0.0211-0.0413-0.0415-0.0625-0.0625-0.0209-0.0209-0.0415-0.0417-0.0625-0.0625l-0.0312-0.0312c-0.0105-0.0105-0.0207-0.0208-0.0312-0.0312-0.0373-0.0373-0.0874-0.0569-0.125-0.0937-0.13402-0.13001-0.26881-0.25055-0.40625-0.375-0.0548-0.0499-0.10092-0.10724-0.15625-0.15625-0.13826-0.12314-0.26476-0.25743-0.40625-0.375-0.0104-0.009-0.0208-0.0228-0.0312-0.0312-0.006-0.005-0.0253 0.005-0.0312 0-0.0113-0.009-0.0199-0.022-0.0312-0.0312-0.0112-0.009-0.02-0.0222-0.0312-0.0312-0.0178-0.0145-0.0446-0.0168-0.0625-0.0312-0.0519-0.0417-0.10399-0.0841-0.15625-0.125-0.0114-0.009-0.0198-0.0223-0.0312-0.0312-0.15254-0.11812-0.31295-0.23183-0.46875-0.34375-0.17381-0.12628-0.35357-0.25648-0.53125-0.375-0.012-0.008-0.0192-0.0234-0.0312-0.0312-0.012-0.008-0.0193-0.0234-0.0312-0.0312-0.43511-0.28687-0.88835-0.54074-1.3438-0.78125-0.0122-0.006-0.019-0.0249-0.0312-0.0312-0.91643-0.48089-1.868-0.83182-2.8438-1.125-0.0224-0.007-0.0401-0.0247-0.0625-0.0312-0.49928-0.14772-0.99127-0.27644-1.5-0.375-0.50873-0.0986-1.017-0.16942-1.5312-0.21875-0.5142-0.0493-1.0468-0.0937-1.5625-0.0937zm-28.344 56.312-68.875 51.875c-1.9624 1.9625-3.2955 4.3206-4.0312 6.8125-0.0027 0.009 0.0027 0.022 0 0.0312-0.87427 2.9818-0.88016 6.176 0 9.1562 0.14717 0.49834 0.30378 0.9839 0.5 1.4688 0.0049 0.0122 0.02633 0.0191 0.03125 0.0312 0.38984 0.9562 0.85659 1.869 1.4375 2.75 0.0078 0.012 0.02338 0.0193 0.03125 0.0312 0.0079 0.012 0.02336 0.0193 0.03125 0.0312 0.11834 0.17738 0.24887 0.3577 0.375 0.53125 0.04349 0.0602 0.08058 0.1278 0.125 0.1875 0.11785 0.15928 0.25052 0.31297 0.375 0.46875 0.0144 0.0178 0.01676 0.0447 0.03125 0.0625 0.0091 0.0112 0.02214 0.0201 0.03125 0.0312 0.0092 0.0113 0.02201 0.0199 0.03125 0.0312 0.0049 0.006-0.0049 0.0253 0 0.0312 0.08166 0.10073 0.1968 0.18208 0.28125 0.28125 0.03657 0.0449 0.08788 0.0804 0.125 0.125 0.21162 0.23825 0.39679 0.49054 0.625 0.71875l0.03125 0.0312 0.03125 0.0312 0.0625 0.0625 0.0625 0.0625c0.02617 0.0265 0.03611 0.0674 0.0625 0.0937l0.125 0.0937 0.09375 0.0937 0.125 0.125 0.15625 0.15625 0.15625 0.15625 0.15625 0.15625 0.1875 0.1875 0.21875 0.21875 0.1875 0.1875 0.25 0.25 0.25 0.25 0.25 0.25c0.09121 0.0958 0.18723 0.18723 0.28125 0.28125l0.277 0.29 0.312 0.31 0.3125 0.3125 0.34375 0.34375 0.34375 0.34375 0.15625 0.15625 0.1875 0.21875 0.40625 0.375 0.375 0.375 0.40625 0.40625 0.4375 0.4375 0.4375 0.4375 0.4375 0.4375 0.46875 0.46875 0.5 0.5 0.5 0.5 0.5 0.5 0.53125 0.53125 0.53125 0.53125 0.5625 0.5625 0.5625 0.5625 0.59375 0.59375 0.59375 0.59375 0.625 0.625 0.625 0.625 0.65625 0.65625 0.65625 0.65625 0.6875 0.6875 0.6875 0.6875 0.6875 0.6875 0.5 0.5 0.15625 0.15625 0.03125 0.0625c0.01038 0.0104 0.02083 0.0208 0.03125 0.0312l0.75 0.71875 0.75 0.75 0.53125 0.53125 0.1875 0.1875 0.0312 0.0625 0.1875 0.15625 0.59375 0.59375 0.8125 0.8125 0.8125 0.8125 0.8125 0.8125 0.84375 0.84375 0.84375 0.84375 0.875 0.875 0.875 0.875 0.90625 0.90625 0.90625 0.90625 0.9375 0.9375 0.9375 0.9375 0.96875 0.96875 0.96875 0.96875 1 1 1 1 1 1 1.0312 1.0312 1.0625 1.0625 1.0625 1.0625 1.0625 1.0625 1.0938 1.0938 1.125 1.125 1.0938 1.0938 1.1562 1.1562 1.1562 1.1562 1.1562 1.1562 1.1875 1.1875 1.1875 1.1875 1.2188 1.2188 1.2188 1.2188 1.25 1.25 1.25 1.25 1.25 1.25 1.0625 1.0625 0.125 0.125 0.0625 0.0625v0.0312l0.0312 0.0312 1.125 1.0938 0.1875 0.1875 1.3125 1.3125 1.3438 1.3438 1.3438 1.3438 1.3438 1.3438 1.375 1.375 1.4062 1.4062 1.1562 1.1562 0.0937 0.0937 0.0312 0.0625 0.0625 0.0625 0.0312 0.0312 0.5 0.46875 0.9375 0.9375 1.4375 1.4375 1.4375 1.4375 1.4688 1.4688 1.4688 1.4688 1.5 1.5 1.5 1.5 1.5312 1.5312 1.5312 1.5312 0.46875 0.46875 1.0938 1.0938 1.5625 1.5625 1.5625 1.5625 0.15625 0.15625 1.4688 1.4688 1.5938 1.5938 1.625 1.625 1.6562 1.6562 1.6562 1.6562 1.6562 1.6562 1.6875 1.6875 1.6875 1.6875 0.15625 0.15625 1.5625 1.5625 0.6875 0.6875 1.0625 1.0625 1.75 1.75 1.75 1.75 1.7812 1.7812 1.7812 1.7812 1.8125 1.8125 1.8125 1.8125 1.8438 1.8438 1.8438 1.8438 1.8438 1.8438 1.6562 1.6562v0.0312l0.0625 0.0625c0.0512 0.0526 0.10416 0.10416 0.15625 0.15625l1.0312 1 0.875 0.875 1.9062 1.9062 1.9375 1.9375 1.9375 1.9375 1.9375 1.9375 1.9688 1.9688 2 2 2 2 1.375 1.375 0.625 0.625 2.0312 2.0312 2.0312 2.0312 2.0625 2.0625 2.0625 2.0625 2 2 0.0937 0.0937 2.0938 2.0938 2.125 2.125 2.125 2.125 2.1562 2.1562 2.1562 2.1562 2.1875 2.1875 0.5625 0.53125 0.0625 0.0625 0.0312 0.0312 0.0625 0.0625 0.0937 0.0937 0.0937 0.0937 0.125 0.125 0.125 0.125 0.125 0.125 0.15625 0.15625 0.1875 0.1875 0.1875 0.1875 0.1875 0.1875 0.1875 0.21875h0.0312l0.21875 0.21875 0.25 0.25 0.25 0.28125 0.28125 0.25c0.0105 0.0102 0.0207 0.0211 0.0312 0.0312l0.28125 0.28125 0.28125 0.28125 0.3125 0.34375 0.25 0.25 0.0937 0.0625 0.34375 0.34375 0.375 0.375 0.375 0.375 0.40625 0.40625 0.40625 0.40625 0.21875 0.25 0.1875 0.15625 0.4375 0.4375 0.46875 0.46875 0.46875 0.46875 0.46875 0.46875 0.21875 0.25 0.28125 0.25 0.53125 0.53125 0.5 0.5 0.5625 0.5625 0.375 0.40625 0.1875 0.15625 0.5625 0.5625 0.59375 0.59375 0.59375 0.59375 0.3125 0.34375 0.3125 0.28125 0.625 0.625 0.625 0.65625c0.0775 0.0785 0.17103 0.14194 0.25 0.21875l0.4375 0.4375 0.0312 0.0625 0.625 0.59375 0.6875 0.6875 0.71875 0.71875 0.28125 0.3125 0.4375 0.40625 0.75 0.75 0.75 0.75 0.375 0.40625 0.375 0.34375 0.78125 0.78125 0.78125 0.78125 0.375 0.40625 0.4375 0.40625 0.84375 0.84375 0.8125 0.84375 0.25 0.25 0.625 0.59375 0.875 0.875 0.84375 0.875h0.0312l0.90625 0.90625 0.90625 0.90625 0.53125 0.5625 0.40625 0.375 0.9375 0.9375 0.9375 0.9375 0.0937 0.125 0.90625 0.875 0.96875 0.96875 0.53125 0.5625 0.46875 0.4375 1.0312 1.0312 0.90625 0.9375 0.125 0.0937 1.0312 1.0312 1.0625 1.0625 0.21875 0.25 0.5625 0.5625 0.3125 0.28125 1.0938 1.0938 0.46875 0.5 0.625 0.59375 1.125 1.125 0.71875 0.75 0.40625 0.375 1.1562 1.1562 0.90625 0.9375 0.25 0.25c0.0206 0.0209 0.0418 0.0418 0.0625 0.0625l1.125 1.0938 0.8125 0.84375c0.0765 0.0797 0.14027 0.17152 0.21875 0.25l0.15625 0.125 2.375 2.375 0.0625 0.0312 1.25 1.25 1.1875 1.2188 0.0625 0.0312 1.2812 1.2812 1.1875 1.2188 0.0937 0.0625 1.3125 1.3125 1.1562 1.1875 0.15625 0.125 1.3125 1.3125 1.0938 1.125 0.25 0.21875 1.375 1.375 0.9375 0.96875 0.4375 0.40625 1.375 1.375 0.78125 0.8125 0.625 0.59375 1.4062 1.4062 0.5625 0.59375 0.875 0.84375 1.4688 1.4688 0.28125 0.3125 1.1562 1.125 1.5 1.5v0.0312l1.4688 1.4375 0.9375 0.96875 0.15625 0.15625c0.0262 0.0265 0.0361 0.0674 0.0625 0.0937l2.6875 2.6562 0.75 0.71875 1.5312 1.5312 0.40625 0.4375 1.1562 1.125 1.5312 1.5625 0.0625 0.0312 1.5938 1.5938 1.0625 1.0938 0.5625 0.53125 1.625 1.625 0.53125 0.5625 1.0938 1.0625 1.625 1.6562h0.0312l1.6875 1.6875 1.0625 1.0938 0.625 0.59375 1.6875 1.6875 0.4375 0.46875 1.2812 1.25 1.5 1.5312 0.21875 0.1875 1.75 1.75 0.84375 0.875 0.90625 0.875 1.7812 1.7812 0.125 0.15625 1.6562 1.625 0.9375 0.96875 0.0312 0.0312 0.0937 0.125c0.0309 0.0314 0.0625 0.0625 0.0937 0.0937l2.8438 2.8438 2.875 2.8438 0.4375 0.40625 1.875 1.875 0.5625 0.59375 1.3125 1.2812 1.5625 1.5938 0.34375 0.3125 1.9062 1.9062 0.65625 0.6875 1.25 1.2188 1.6875 1.7188 0.25 0.21875 1.6562 1.6875 0.3125 0.28125 0.71875 0.75 1.25 1.2188 1.6875 1.7188 0.28125 0.25 2 2 0.6875 0.71875 1.3125 1.3125c0.0412 0.0417 0.0834 0.0838 0.125 0.125l1.9062 1.875 2.0625 2.0625 2.0312 2.0625c0.0775 0.0785 0.17103 0.14194 0.25 0.21875l1.8438 1.8438 2.0938 2.0938 2.0938 2.0938 2.125 2.125 2.125 2.125 2.125 2.125 1.2812 1.3125 0.90625 0.875 2.1562 2.1562 2.1875 2.1875 2.2188 2.2188 2.2188 2.2188 2.2188 2.2188 2.25 2.25 2.2812 2.2812 2.2812 2.2812 2.2812 2.2812 2.3125 2.3125 2.3438 2.3438 2.3125 2.3125 2.375 2.375 2.3438 2.375 0.3125 0.3125 2.0938 2.0625 0.71875 0.75 1.6875 1.6562 2.4062 2.4062 2.4062 2.4375c0.0775 0.0785 0.17103 0.14194 0.25 0.21875l2.2188 2.2188 2.4375 2.4375 2.4688 2.4688 2.5 2.5 2.5 2.5 2.5312 2.5312 2.5312 2.5312 2.5312 2.5312 2.5625 2.5625 2.5938 2.5938 2.5938 2.5938 2.5938 2.5938 2.625 2.625 2.625 2.625 2.6562 2.6562 2.6562 2.6562 2.6875 2.6875 2.6875 2.6875 2.7188 2.7188 2.7188 2.7188 2.75 2.75 2.75 2.75 2.7812 2.7812 2.7812 2.7812 2.7812 2.7812 2.8125 2.8438c0.0981 0.0994 0.21206 0.1846 0.3125 0.28125l2.5312 2.5312 2.8438 2.8438 2.8438 2.875 2.875 2.875c0.0981 0.0994 0.21206 0.1846 0.3125 0.28125l2.5938 2.5938 2.9062 2.9062 2.9062 2.9062 2.9375 2.9375 2.9375 2.9375 2.9688 2.9688c6.2802 6.3591 17.369 7.1825 22.781 0l51.906-68.844-2.9688-2.9688-2.9375-2.9375-2.9375-2.9375-2.9375-2.9375-2.88-2.89-2.87-2.87-2.88-2.88-2.875-2.8438-2.8438-2.8438-2.8125-2.8438-2.8125-2.8125-2.8125-2.8125-2.7812-2.7812-2.75-2.75-2.7812-2.7812-2.7188-2.7188-2.7188-2.7188-2.71-2.71-2.69-2.69-2.69-2.69-2.6875-2.6562-2.625-2.6562-2.6562-2.6562-2.625-2.625-2.5938-2.5938-2.5938-2.5938-2.5625-2.5625-2.5625-2.5625-2.5625-2.5625-2.53-2.53-2.5-2.5-2.5312-2.5-2.4688-2.5-2.4688-2.4688-2.4688-2.4688-2.4375-2.4375-2.4375-2.4375-2.4062-2.4062-2.4062-2.4062-2.375-2.375-2.375-2.375-2.3438-2.3438-2.3438-2.3438-2.3125-2.3125-2.3125-2.3125-2.3125-2.3125-2.2812-2.2812-2.25-2.25-2.25-2.25-2.25-2.25-2.2188-2.2188-2.1875-2.1875-2.1875-2.1875-2.1875-2.1875-2.1562-2.1562-2.1562-2.1562-2.125-2.125-2.125-2.125-2.0938-2.0938-2.0938-2.0938-2.0625-2.0625-2.0625-2.0625-2.0312-2.0312-2.0312-2.0312-2-2-2-2-2-2-1.125-1.0938-0.84375-0.875-1.9375-1.9375-0.1875-0.15625-1.75-1.7812-1.1875-1.1562-0.75-0.78125-1.9062-1.9062-0.28125-0.25-1.625-1.625-1.3125-1.3125-0.5625-0.59375-1.8438-1.8438-0.5-0.46875-1.3438-1.375-1.5312-1.5-0.3125-0.34375-1.8125-1.8125-0.75-0.71875-1.0625-1.0938-1.7812-1.7812-3.5312-3.5312-1.75-1.75-0.40625-0.375-1.3438-1.375-1.4688-1.4375-0.25-0.28125-1.6875-1.6875-0.875-0.84375-0.8125-0.84375-1.6562-1.6562-0.3125-0.28125-1.3438-1.375-1.4062-1.375-0.25-0.28125-1.625-1.625-0.90625-0.875-0.6875-0.71875-1.625-1.625-0.40625-0.375-1.1562-1.1875-1.5625-1.5312v-0.0312l-1.5625-1.5625-1.1562-1.125-0.375-0.40625-1.5312-1.5312-0.78125-0.75-0.71875-0.75-1.5-1.5-0.46875-0.4375-1-1.0312-1.4688-1.4688-1.4375-1.4375-1.4062-1.375-0.0312-0.0625-1.4375-1.4062-1.1875-1.1875-0.1875-0.21875-1.4062-1.4062-1.0312-1-0.34375-0.375-1.3438-1.3438-0.90625-0.875-0.4375-0.46875-1.3438-1.3438-0.8125-0.78125-0.5-0.53125-1.3125-1.2812-0.75-0.75-0.53125-0.5625-1.25-1.25-0.78125-0.75-0.46875-0.5-1.25-1.25-0.84375-0.8125-0.375-0.40625-1.2188-1.2188-0.9375-0.90625-0.25-0.28125-1.1875-1.1875-1.0625-1.0312-0.0937-0.125-1.1562-1.1562-1.1562-1.1562-1.0938-1.0938-1.125-1.125-0.375-0.34375-0.71875-0.75-1.0625-1.0625-0.6875-0.65625-0.375-0.40625-1.0625-1.0625-1.0312-1v-0.0312l-1-1-1-1-0.4375-0.40625-0.5625-0.59375-0.96875-0.96875-0.90625-0.875-0.0625-0.0937-0.9375-0.9375-0.9375-0.9375-0.46875-0.4375-0.4375-0.46875-0.90625-0.90625-0.875-0.875-0.1875-0.15625-0.6875-0.71875-0.84375-0.84375-0.84375-0.8125v-0.0312l-0.8125-0.8125-0.8125-0.8125-0.75-0.71875-0.0625-0.0937-0.78125-0.75-0.75-0.78125-0.75-0.71875v-0.0312l-0.75-0.71875-0.71875-0.75-0.6875-0.6875-0.1875-0.15625-0.5-0.53125-0.6875-0.6875-0.65625-0.65625-0.46875-0.4375-0.1875-0.21875-0.625-0.625-0.625-0.625-0.59375-0.59375-0.28125-0.25-0.875-0.90625-0.5625-0.5625-0.53125-0.53125-0.34375-0.3125-0.21-0.19-0.5-0.5-0.5-0.5-0.5-0.5-0.46875-0.46875-0.125-0.0937-0.3125-0.34375-0.4375-0.4375-0.4375-0.4375-0.40625-0.40625-0.375-0.375-0.28125-0.25-0.125-0.125-0.34375-0.375-0.34375-0.34375-0.34-0.34-0.3125-0.3125-0.3125-0.3125-0.46875-0.4375-0.0937-0.125-0.25-0.25-0.25-0.25-0.25-0.25-0.1875-0.1875-0.21875-0.21875-0.1875-0.1875-0.15625-0.15625-0.15625-0.15625-0.16-0.16-0.125-0.125-0.0937-0.0937-0.125-0.0937-0.0625-0.0937-0.0625-0.0625-0.0625-0.0625-0.0312-0.0312-0.0312-0.0312-1.9688-1.9375-2.1875-2.1875-2.1875-2.1875-2.1875-2.1875-2.1562-2.1562-2.1562-2.1562-2.125-2.125-2.125-2.125-2.0938-2.0938-2.0938-2.0938-2.0625-2.0625-2.06-2.06-2.03-2.03-2.0312-2.0312-2-2-2-2-2-2-1.9688-1.9688-1.9375-1.9375-1.9375-1.9375-1.9375-1.9375-1.9062-1.9062-3.7812-3.7812-1.8438-1.8438-1.8438-1.8438-1.8438-1.8438-1.8125-1.8125-1.8125-1.8125-1.7812-1.7812-1.7812-1.7812-1.75-1.75-1.75-1.75-1.75-1.75-1.7188-1.7188-1.6875-1.6875-1.6875-1.6875-1.6562-1.6562-1.6562-1.6562-1.6562-1.6562-1.625-1.625-1.5938-1.5938-1.625-1.625-1.5625-1.5625-1.5625-1.5625-1.5625-1.5625-1.5312-1.5312-1.5312-1.5312-3-3-1.4688-1.4688-1.4688-1.4688-1.4375-1.4375-1.4375-1.4375-2.8125-2.8125-1.4062-1.4062-1.375-1.375-1.3438-1.3438-1.3438-1.3438-1.3438-1.3438-1.3125-1.3125-2.5938-2.5938-1.25-1.25-1.25-1.25-1.25-1.25-1.2188-1.2188-1.2188-1.2188-1.1875-1.1875-1.1875-1.1875-1.1562-1.1562-1.1562-1.1562-1.1562-1.1562-1.0938-1.0938-1.125-1.125-1.0938-1.0938-1.0625-1.0625-1.0625-1.0625-1.0625-1.0625-1.0312-1.0312-1-1-1-1-1-1-0.97-0.97-0.97-0.97-0.9375-0.9375-0.9375-0.9375-0.90625-0.90625-0.90625-0.90625-0.875-0.875-0.875-0.875-0.84375-0.84375-0.84375-0.84375-0.8125-0.8125-0.8125-0.8125-0.8125-0.8125-1.5312-1.5312-0.75-0.75-1.4688-1.4688-0.6875-0.6875-0.6875-0.6875-0.6875-0.6875-0.65625-0.65625-0.65625-0.65625-0.625-0.625-0.625-0.625-0.59375-0.59375-0.59375-0.59375-0.5625-0.5625-0.5625-0.5625-0.53125-0.53125-0.53125-0.53125-0.5-0.5-0.5-0.5-0.5-0.5-0.46875-0.46875-0.4375-0.4375-0.4375-0.4375-0.4375-0.4375-0.40625-0.40625-0.375-0.375-0.75-0.75-0.34375-0.34375-0.34375-0.34375-0.3125-0.3125-0.3125-0.3125-0.28125-0.28125-0.28125-0.28125-0.25-0.25-0.25-0.25-0.25-0.25-0.1875-0.1875-0.21875-0.21875-0.1875-0.1875-0.15625-0.15625-0.15625-0.15625-0.15625-0.15625-0.125-0.125-0.0937-0.0937-0.125-0.0937-0.0625-0.0937-0.0625-0.0625-0.0625-0.0625-0.0312-0.0312-0.0312-0.0312z" clip-path="url(#clipPath42482)" transform="translate(34.701 526.06)" fill="url(#linearGradient42464)"/>
  <path id="path4162" d="m388.97 90.438c-4.1352 0.0095-8.2834 1.5957-11.438 4.75l-106 106 39.156 39.125 105.97-105.97c6.3887-6.3898 6.4227-16.565 0.0625-22.844l-16.34-16.375c-3.1395-3.1397-7.2711-4.697-11.406-4.6875zm-205.03 42.875c-4.1256-0.00017-8.2353 1.5795-11.375 4.7188l-27.75 27.75 201.22 201.22 27.75-27.75c6.3594-6.3594 6.3601-16.503 0-22.781l-178.44-178.44c-3.1395-3.1395-7.2807-4.7186-11.406-4.7188zm-28.344 56.312-68.875 51.875c-6.2796 6.2801-6.2783 16.503 0 22.781l161.02 160.99c6.2802 6.3591 17.369 7.1825 22.781 0l51.89-68.86z" clip-path="url(#clipPath42478)" transform="translate(28.699 536.06)" fill="#f2f2f2"/>
 </g>
</svg>
